<?xml version="1.0" encoding="utf-8" ?>
<svg xmlns="http://www.w3.org/2000/svg" xmlns:xlink="http://www.w3.org/1999/xlink" width="296" height="288">
	<clipPath id="cl_4">
		<rect width="296" height="288"/>
	</clipPath>
	<g clip-path="url(#cl_4)">
		<path fill="#20BFFF" transform="translate(0 -389)" d="M179.949 413.076L188.614 413.06L188.974 546.986C189.011 567.191 189.548 587.586 188.897 607.776C189.333 614.507 188.994 621.505 188.993 628.261C189.012 641.813 188.957 655.365 188.828 668.916L179.901 669.063C179.464 658.037 179.75 646.958 179.759 635.924L179.688 588.274L179.949 413.076Z"/>
		<path fill="#0479FE" transform="translate(0 -389)" d="M179.949 413.076L188.614 413.06L188.974 546.986C189.011 567.191 189.548 587.586 188.897 607.776C187.597 601.16 188.472 593.213 188.449 586.422C188.541 571.957 188.39 557.492 187.997 543.032C187.889 539.037 188.766 534.492 187.755 530.646C186.299 531.771 184.529 530.09 182.472 530.553C178.689 534.036 181.279 579.129 179.766 587.865C179.743 588.002 179.714 588.138 179.688 588.274L179.949 413.076Z"/>
		<defs>
			<linearGradient id="gradient_0" gradientUnits="userSpaceOnUse" x1="161.15843" y1="449.74442" x2="231.14835" y2="631.75311">
				<stop offset="0" stop-color="#005CFE"/>
				<stop offset="1" stop-color="#32E0FF"/>
			</linearGradient>
		</defs>
		<path fill="url(#gradient_0)" transform="translate(0 -389)" d="M191.958 436.83L200.951 436.881L201.117 571.719C201.146 596.452 201.498 621.262 200.891 645.987L192.058 645.997C191.439 619.085 191.973 592.088 192.018 565.169L191.958 436.83Z"/>
		<path fill="#159AFE" transform="translate(0 -389)" d="M131.8 478.357L140.416 478.399C140.79 520.963 140.894 563.529 140.728 606.094L140.485 606.752C137.976 607.576 134.266 607.146 131.582 607.134L131.548 529.767C131.572 512.642 131.353 495.476 131.8 478.357Z"/>
		<path fill="#159AFE" transform="translate(0 -389)" d="M167.981 481.991L176.461 482.112L176.501 563.101C176.533 576.31 177.456 590.199 176.38 603.338L175.125 603.548L167.94 603.673C167.61 563.113 167.623 522.551 167.981 481.991Z"/>
		<path fill="#159AFE" transform="translate(0 -389)" d="M211.903 494.757L212.106 494.897C213.472 497.845 213.151 580.805 213.098 593.036L204.953 593.003C204.45 592.896 204.793 592.995 204.003 592.51C203.377 580.684 203.868 568.705 203.905 556.858L204.026 494.913L211.903 494.757Z"/>
		<path fill="#0479FE" transform="translate(0 -389)" d="M119.967 495.519L128.375 495.533C128.496 514.12 128.509 532.707 128.413 551.294C128.6 564.507 128.644 577.722 128.547 590.936C125.709 590.757 122.896 590.578 120.05 590.633C119.98 584.869 119.772 579.067 119.866 573.305C118.81 565.831 119.606 557.207 119.609 549.598C119.588 531.571 119.707 513.544 119.967 495.519Z"/>
		<path fill="#20BFFF" transform="translate(0 -389)" d="M120.258 541.252C122.758 541.137 125.272 541.162 127.775 541.135C127.803 544.476 127.592 548.048 128.413 551.294C128.6 564.507 128.644 577.722 128.547 590.936C125.709 590.757 122.896 590.578 120.05 590.633C119.98 584.869 119.772 579.067 119.866 573.305C120.934 562.984 120.16 551.692 120.258 541.252Z"/>
		<defs>
			<linearGradient id="gradient_1" gradientUnits="userSpaceOnUse" x1="223.55264" y1="503.32452" x2="241.34126" y2="583.1991">
				<stop offset="0" stop-color="#016DFF"/>
				<stop offset="1" stop-color="#20C8FF"/>
			</linearGradient>
		</defs>
		<path fill="url(#gradient_1)" transform="translate(0 -389)" d="M228.465 501.378L237.131 501.447C237.514 529.501 237.574 557.558 237.312 585.613C234.351 585.506 231.36 585.577 228.395 585.563L228.465 501.378Z"/>
		<path fill="#159AFE" transform="translate(0 -389)" d="M155.651 507.35L164.941 507.45C164.672 531.578 165.086 555.706 164.712 579.832C161.673 579.799 158.634 579.811 155.596 579.866L155.651 507.35Z"/>
		<defs>
			<linearGradient id="gradient_2" gradientUnits="userSpaceOnUse" x1="115.20465" y1="516.46655" x2="109.08769" y2="570.45331">
				<stop offset="0" stop-color="#0777FF"/>
				<stop offset="1" stop-color="#28C0FF"/>
			</linearGradient>
		</defs>
		<path fill="url(#gradient_2)" transform="translate(0 -389)" d="M107.908 515.585L116.984 515.586C116.849 522.268 117.715 569.512 116.219 571.499L115.124 571.64C112.67 571.628 110.229 571.741 107.778 571.85L107.908 515.585Z"/>
		<path fill="#159AFE" transform="translate(0 -389)" d="M239.948 520.447L249.12 520.477C249.191 535.953 249.178 551.429 249.081 566.905L239.83 566.955C239.755 551.452 239.794 535.949 239.948 520.447Z"/>
		<path fill="#159AFE" transform="translate(0 -389)" d="M143.576 523.075L152.8 523.092L152.803 562.516L143.738 562.471L143.576 523.075Z"/>
		<path fill="#159AFE" transform="translate(0 -389)" d="M215.949 529.668C218.943 529.706 221.937 529.791 224.928 529.924C225.368 539.399 225.203 548.965 225.245 558.451L215.984 558.466C215.87 548.87 215.952 539.265 215.949 529.668Z"/>
		<path fill="#159AFE" transform="translate(0 -389)" d="M96.0596 533.923L105.398 533.987L105.428 552.921C102.389 552.891 99.3374 552.991 96.298 553.031C96.0479 546.662 96.0614 540.296 96.0596 533.923Z"/>
		<path fill="#0479FE" transform="translate(0 -389)" d="M252.013 534.993L261.038 535.034C260.895 541.038 260.938 547.057 260.906 553.064L252.041 552.996L252.013 534.993Z"/>
		<path fill="#159AFE" transform="translate(0 -389)" d="M263.48 540.126L272.979 540.061L273.004 548.464L263.475 548.505L263.48 540.126Z"/>
		<path fill="#159AFE" transform="translate(0 -389)" d="M90.7255 539.754C91.8536 539.677 92.4527 539.696 93.4882 540.166C94.6009 542.278 94.0158 545.71 93.9325 548.115L87.4621 548.19C86.423 548.292 85.9179 548.362 85.0012 547.824C84.1082 545.44 84.6465 542.342 84.746 539.789L90.7255 539.754Z"/>
		<path fill="#159AFE" transform="translate(0 -389)" d="M275.648 540.456L284.978 540.498L284.991 547.973L275.609 548.039L275.648 540.456Z"/>
		<path fill="#159AFE" transform="translate(0 -389)" d="M72.5698 540.312L81.6432 540.352L81.6336 548.073L72.6948 548.011L72.5698 540.312Z"/>
	</g>
</svg>
